<svg width="148" height="148" viewBox="0 0 148 148" fill="none" xmlns="http://www.w3.org/2000/svg">
<path fill-rule="evenodd" clip-rule="evenodd" d="M118.7 113.7L92.5 139.9C82.4 150 66 150 55.9 139.9L29.8 113.8C34.7 113.8 38.8 113.2 42.3 112C45.9 110.8 48.7 109 50.8 106.6L71.8999 85.2C72.9999 84.3 74.1 83.8 75.1 83.8C76.2 83.8 77.2 84.3 78.3 85.2L99.3999 106.6C101.4 109 104.3 110.8 107.9 112C110.9 112.9 114.5 113.5 118.7 113.7ZM29.7 34.4L56 8.2C66.1 -1.9 82.5 -1.9 92.6 8.2L118.9 34.5C114.7 34.6 111 35.2 107.9 36.2C104.3 37.4 101.5 39.2 99.3999 41.6L78.3 63C77.2 63.9 76.1 64.4 75.1 64.4C74 64.4 72.9999 63.9 71.8999 63L50.8 41.6C48.8 39.2 45.9 37.4 42.3 36.2C38.9 35 34.7 34.4 29.7 34.4ZM8.39995 55.7C-1.70005 65.8 -1.70005 82.2 8.39995 92.3L20.8 104.7C30.1 106.2 36.1 105.6 40.5 104C44.9 102.4 47.6 99.9 50 97.5C65.4 82 70.2 78.1 70.3 78.1C70.9 77.7 71.7 77.3 72.6 77.1C73.5 76.8 74.5 76.7 75.3 76.7C76.1 76.7 77.0999 76.8 77.8999 77.1C78.7999 77.4 79.6 77.7 80.2 78.2C80.2 78.2 85.1 82 100.5 97.6C102.9 99.9 105.6 102.5 110 104.1C114 105.5 119.4 106.1 127.3 105.1L140 92.4C150.1 82.3 150.1 65.9 140 55.8L127.4 43.2C119.3 42.1 113.9 42.8 109.9 44.2C105.5 45.8 102.8 48.3 100.4 50.7C84.9999 66.2 80.2 70.1 80.1 70.1C79.5 70.5 78.7 70.9 77.8 71.1C76.9 71.4 76 71.5 75.2 71.5C74.4 71.5 73.4 71.3 72.5 71.1C71.6 70.8 70.8 70.5 70.2 70.1C70.2 70.1 65.3 66.3 49.9 50.7C47.5 48.4 44.8 45.8 40.4 44.2C36 42.7 29.9 42.1 20.5 43.6L8.39995 55.7Z" fill="black"/>
</svg>
