<?xml version="1.0" encoding="utf-8"?>
<!-- Generator: Adobe Illustrator 26.2.1, SVG Export Plug-In . SVG Version: 6.00 Build 0)  -->
<svg version="1.1" id="Camada_1" xmlns="http://www.w3.org/2000/svg" xmlns:xlink="http://www.w3.org/1999/xlink" x="0px" y="0px"
	 viewBox="0 0 2500 2500" style="enable-background:new 0 0 2500 2500;" xml:space="preserve">
<style type="text/css">
	.st0{fill-rule:evenodd;clip-rule:evenodd;}
</style>
<g>
	<path class="st0" d="M1125.3,1803.3c0,54.5,44.3,72.4,74.9,72.4c71.5,0,144.8-45.1,144.8-118.4v-77.5
		c-16.2,12.8-43.4,23-109.9,32.3C1174.6,1722.4,1125.3,1737.7,1125.3,1803.3z"/>
	<path class="st0" d="M1975.9,122.4l-1448.4-0.9h0C298.5,120.7,112,308.1,112,536.3l-1.7,1448.4c0,228.2,186.5,414.7,414.7,415.5
		l1449.2,0.9c228.2,0,415.5-186.5,415.5-414.7V538C2390.6,309.8,2203.2,122.4,1975.9,122.4z M496,1971.9H322.3l0.9-811.5h173.7
		L496,1971.9z M1903.5,1161.2h165.2l-117.5,129.4h-115.8L1903.5,1161.2z M915.8,1483.9H815.3l-0.9,326.1c0,35.8,1.7,49.4,67.3,49.4
		c10.2,0,22.1-1.7,33.2-2.6V1977c-24.7,0.8-50.2,2.6-75.8,2.6h-21.3c-139.6,0-164.3-52.8-164.3-130.3V1484h-82.6v-113.3h83.4v-209.5
		h160.9h0v209.4h100.5V1483.9z M1363.7,1972.7c-9.4-28.9-11.9-37.5-15.3-70.7c-35.8,36.6-87.7,86.8-198.4,86.8
		c-91.1,0-186.5-51.1-186.5-175.4c0-117.5,76.6-178,179.7-192.4l144.7-21.3c25.6-3.4,57.1-13.6,57.1-47.7
		c0-66.4-64.7-69.8-106.5-69.8c-80,0-94.5,48.5-99.6,83.4H983.1c19.6-183.9,149.9-210.3,275-210.3c86.9,0,243.5,26.4,243.5,175.4h0
		v325.3c0,0.8,0.9,49.4,0.9,115.8L1363.7,1972.7z M2178.6,1972.7h-155v-84.3h-1.7c-36.6,64.7-102.2,101.3-186.5,100.5
		c-120.9,0-208.6-68.1-208.6-221.4l0.9-395.9h160.9v372.9c-0.9,92.8,54.5,111.6,104.7,111.6c52.8,0,124.3-30.6,124.3-137.1v-347.4
		h160.9l0,0h0V1972.7z"/>
</g>
</svg>
