<svg width="279" height="74" viewBox="0 0 279 74" fill="none" xmlns="http://www.w3.org/2000/svg">
<path d="M165.6 27.8C167.7 27.8 169.7 28.3 171.5 29.2L173 24.8C170.8 23.9 168.4 23.5 166 23.5C159.5 23.5 152.7 26 152.7 32.8C152.7 40 163.9 39.6 163.9 44.1C163.9 47.3 160.5 48.6 157.5 48.7C155.1 48.8 152.6 48.2 150.5 47.1L149 51.7C151.7 52.6 154.5 53 157.4 52.9C164.6 52.9 170.5 49.5 170.5 43.2C170.5 35.3 159.2 36 159.2 31.8C159 29 163 27.8 165.6 27.8Z" fill="black"/>
<path d="M269.6 30.6001C261.1 30.6001 255.7 36.9001 255.7 45.2001C255.7 50.4001 260.1 53.0001 264.8 53.0001C273.2 53.0001 278.6 46.6001 278.6 38.3001C278.7 33.2001 274.4 30.6001 269.6 30.6001ZM265.8 49.1001C263 49.1001 262 47.2001 262 44.6001C262 40.9001 264.2 34.6001 268.6 34.6001C271.4 34.6001 272.5 36.5001 272.5 39.1001C272.6 42.8001 270.1 49.1001 265.8 49.1001Z" fill="black"/>
<path d="M257.6 30.8001C257 30.6001 256.5 30.6001 255.9 30.6001C252.8 30.6001 250.2 32.9001 248.9 35.5001L249.7 31.1001H244.1C243.9 32.7001 243.6 34.3001 243.2 35.9001L239.6 52.6001H245.6L247.6 43.1001C248.3 39.7001 250.5 35.9001 254.4 35.9001C255 35.9001 255.6 36.0001 256.1 36.2001L257.6 30.8001Z" fill="black"/>
<path d="M178 45.5C178 44.8 178.1 44.1 178.3 43.5C183.7 43.5 193.5 42.5999 193.5 35.8999C193.5 31.9999 189.6 30.7 186.1 30.7C178.5 30.7 172 37.3 172 45.8C172 51.1 176.4 53.1 181.1 53.1C183.9 53.2 186.7 52.5999 189.3 51.3999L189.5 47.6C187.5 48.8 185.2 49.5 182.9 49.6C180.2 49.5 178 48.4 178 45.5ZM185.5 34.1C187 34.1 188.1 34.6 188.1 36.2C188.1 39.6 182.7 40.3 178.9 40.3C179.9 37.5 182.2 34.1 185.5 34.1Z" fill="black"/>
<path d="M234.5 31L231.9 43.3C231.3 46 229.8 49 226.6 49C224.5 49 223.8 47.8 223.8 46.2C223.8 45.4 223.9 44.7 224.1 44L226.8 31H220.9L217.9 45.3C217.7 46.1 217.7 46.9 217.7 47.7C217.7 51.3 220.1 53 223.6 53C227.2 53 229.4 51.2 231.3 48.7L230.7 52.5H236.2C236.4 50.9 236.7 49.3 237 47.7L240.5 31H234.5V31Z" fill="black"/>
<path d="M193.2 46.2C193.2 49.8 195.3 52.6 199.8 52.6C203.4 52.6 205.5 51.4 207.6 48.7L206.9 51.5C205.9 55.5 203.9 58.4 198.5 58.4C196.4 58.4 194.2 57.9 192.3 56.9L191.1 61.1C193.5 61.9 196 62.3 198.5 62.3C208 62.3 211.2 58.4 213.1 49.7L217.1 31.6C214.8 31 212.5 30.7 210.1 30.7C202.1 30.6 193.2 36.5 193.2 46.2ZM209.4 40.1C208.5 43.9 206.3 49.1 202.2 49.1C200.1 49.1 199.4 47.7 199.4 45.8C199.4 39.8 204 34.8 208.9 34.8C209.5 34.8 210 34.9 210.6 35.1L209.4 40.1Z" fill="black"/>
<path d="M95.4 24H83.6L77.5 52.6H83.8L86 42H91.5C97.4 42 103.5 38.9 103.5 31.2C103.5 27.4 100.2 24 95.4 24ZM89 37.8H86.9L89 28.2H92.3C94.7 28.2 97.1 29.6 97.1 31.8C97.1 36.8 93.2 37.8 89 37.8Z" fill="black"/>
<path d="M119.2 30.6001C111 30.6001 102.4 36.6001 102.4 46.2001C102.4 50.2001 104.6 53.1001 108.9 53.1001C113.1 53.1001 115.6 50.4001 117.2 47.6001C116.9 49.6001 116.5 51.6001 116.4 52.6001H122.4C122.5 50.0001 122.8 47.5001 123.4 45.0001L126.4 31.6001C124.9 31.0001 121.7 30.6001 119.2 30.6001ZM118.6 39.8001C117.4 45.0001 114.5 49.1001 111.5 49.1001C109.3 49.1001 108.6 47.5001 108.6 45.6001C108.6 39.8001 113.1 34.6001 118 34.6001C118.6 34.6001 119.2 34.7001 119.7 34.8001L118.6 39.8001Z" fill="black"/>
<path d="M143.4 30.6001C135.2 30.6001 126.3 36.5001 126.3 46.2001C126.3 49.8001 128.4 52.6001 132.9 52.6001C136.5 52.6001 138.6 51.4001 140.7 48.7001L140 51.5001C139 55.5001 137 58.4001 131.6 58.4001C129.5 58.4001 127.3 57.9001 125.4 56.9001L124.2 61.1001C126.6 61.9001 129.1 62.3001 131.7 62.3001C141.2 62.3001 144.4 58.4001 146.3 49.7001L150.3 31.6001C148.1 31.0001 145.8 30.6001 143.4 30.6001ZM142.6 40.1001C141.7 43.9001 139.5 49.1001 135.4 49.1001C133.3 49.1001 132.6 47.7001 132.6 45.8001C132.6 39.8001 137.2 34.8001 142.1 34.8001C142.7 34.8001 143.2 34.9001 143.8 35.1001L142.6 40.1001Z" fill="black"/>
<path d="M69.9001 23.3C65.8001 13.3 57.7001 6.1 48.2001 2.8C44.6001 1.3 40.6001 0.5 36.4001 0.5C32.3001 0.5 28.5001 1.3 24.9001 2.7C24.1001 3 23.3001 3.3 22.5001 3.6C4.00011 11.3 -4.79989 32.5 2.90011 51.1C5.40011 57.1 9.30011 62.1 14.1001 65.8C16.8001 68.2 19.9001 70 23.5001 71.1C31.8001 74.3 41.4001 74.4 50.3001 70.7C68.8001 63.1 77.6001 41.8 69.9001 23.3ZM36.4001 2C53.0001 2 66.5001 15.5 66.5001 32.2C66.5001 33.7 66.4001 35.2 66.2001 36.7C63.1001 32.9 58.5001 30.4 53.2001 30.4C52.9001 30.4 52.6001 30.4 52.4001 30.4C48.7001 25.4 43.4001 21.8 36.9001 20.4C23.9001 17.6 11.1001 25 6.80011 37.3C6.50011 35.6 6.40011 33.9 6.40011 32.2C6.30011 15.5 19.8001 2 36.4001 2ZM31.3001 68.3C18.8001 68.3 8.60011 58.1 8.60011 45.6C8.60011 33.1 18.8001 22.9 31.3001 22.9C38.3001 22.9 44.6001 26.1 48.7001 31.1C41.7001 33.1 36.5001 39.5 36.5001 47.2C36.5001 54 40.6001 59.9 46.4001 62.5C42.5001 66.1 37.2001 68.3 31.3001 68.3ZM53.1001 60.8C45.5001 60.8 39.3001 54.6 39.3001 47C39.3001 39.4 45.5001 33.2 53.1001 33.2C60.7001 33.2 66.9001 39.4 66.9001 47C66.9001 54.6 60.8001 60.8 53.1001 60.8Z" fill="black"/>
</svg>
