<svg width="168" height="110" viewBox="0 0 168 110" fill="none" xmlns="http://www.w3.org/2000/svg">
<path d="M144.7 0.399902H23.5C11 0.399902 0.800003 9.5999 0.800003 20.9999V89.1999C0.800003 100.6 11 109.8 23.5 109.8H144.7C157.2 109.8 167.4 100.5 167.4 89.1999V20.9999C167.4 9.5999 157.2 0.399902 144.7 0.399902ZM154.6 89.1999C154.6 93.4999 150.2 96.9999 144.7 96.9999H23.5C18 96.9999 13.6 93.4999 13.6 89.1999V44.3999H154.5V89.1999H154.6ZM154.6 31.5999H13.6V20.9999C13.6 16.6999 18 13.1999 23.5 13.1999H144.7C150.2 13.1999 154.6 16.6999 154.6 20.9999V31.5999Z" fill="black"/>
</svg>
