<svg width="312" height="285" viewBox="0 0 312 285" fill="none" xmlns="http://www.w3.org/2000/svg">
<path d="M160.5 13.9C160.5 48.9 219.2 87.7001 219.2 127.7C219.2 127.7 219.2 131.6 217.6 135.7C272.5 147.3 311.3 174.6 311.3 206.5C311.3 249.5 242 285 156.2 285C68.5001 285 0.600098 250 0.600098 208.1C0.600098 176.2 42.7001 150.2 93.5001 136.5C93.5001 154.1 151.3 210.1 152.7 232.6C152.9 235.2 153.4 237.4 152.7 240C165.2 233.4 165.2 212.7 165.2 212.7C165.2 163.7 109 141.9 109 93.7001C109 75.0001 117.7 61.2 125.6 57.3V70.8C125.6 105.8 186.4 144.9 186.4 176.9V187.4C200.5 181.9 200.5 155.7 200.5 155.7C200.5 111.6 144 87.1001 144 36.7001C144 18.0001 152.7 4.20005 160.6 0.300049V13.9H160.5Z" fill="black"/>
</svg>
