<svg width="74" height="54" viewBox="0 0 74 54" fill="none" xmlns="http://www.w3.org/2000/svg">
<path d="M6.00001 0.600098H0.700012V53.4001H6.00001V0.600098Z" fill="black"/>
<path d="M15 0.5H11V39.5H15V0.5Z" fill="black"/>
<path d="M24.7 0.5H20.7V39.5H24.7V0.5Z" fill="black"/>
<path d="M34.3 0.5H30.3V39.5H34.3V0.5Z" fill="black"/>
<path d="M43.9 0.5H39.9V39.5H43.9V0.5Z" fill="black"/>
<path d="M53.6 0.5H49.6V39.5H53.6V0.5Z" fill="black"/>
<path d="M63.2 0.5H59.2V39.5H63.2V0.5Z" fill="black"/>
<path d="M73.5 0.5H68.2V53.3H73.5V0.5Z" fill="black"/>
<path d="M16.5 48.5001C17 48.0001 17.3 47.5001 17.3 46.7001C17.3 45.9001 17 45.3001 16.5 44.8001C16 44.3001 15.3 44.1001 14.5 44.1001H11V53.1001H14.8C15.6 53.1001 16.3 52.9001 16.9 52.4001C17.5 51.9001 17.7 51.3001 17.7 50.5001C17.6 49.7001 17.2 49.0001 16.5 48.5001ZM13 46.1001H14.5C14.7 46.1001 14.9 46.2001 15.1 46.3001C15.2 46.5001 15.3 46.6001 15.3 46.9001C15.3 47.2001 15.2 47.3001 15.1 47.5001C15 47.7001 14.8 47.7001 14.5 47.7001H13V46.1001ZM15.3 51.0001C15.1 51.2001 14.9 51.2001 14.7 51.2001H13V49.5001H14.7C15 49.5001 15.2 49.6001 15.3 49.7001C15.5 49.9001 15.5 50.1001 15.5 50.3001C15.5 50.5001 15.5 50.9001 15.3 51.0001Z" fill="black"/>
<path d="M24.2 44C22.9 44 21.8 44.4 20.9 45.3C20 46.2 19.5 47.3 19.5 48.6C19.5 49.9 20 51 20.9 51.9C21.8 52.8 22.9 53.3 24.2 53.3C25.5 53.3 26.6 52.9 27.5 51.9C28.4 51 28.9 49.9 28.9 48.6C28.9 47.3 28.4 46.2 27.5 45.3C26.6 44.5 25.5 44 24.2 44ZM26.1 50.6C25.6 51.1 25 51.3 24.2 51.3C23.5 51.3 22.8 51.1 22.3 50.6C21.8 50.1 21.5 49.5 21.5 48.7C21.5 47.9 21.8 47.3 22.3 46.8C22.8 46.3 23.4 46.1 24.2 46.1C24.9 46.1 25.6 46.3 26.1 46.8C26.6 47.3 26.9 47.9 26.9 48.7C26.9 49.5 26.6 50.1 26.1 50.6Z" fill="black"/>
<path d="M33.4 44.2H31.3V53.1999H36.6V51.2H33.4V44.2Z" fill="black"/>
<path d="M40.8 49.5999H44.1V47.7H40.8V46.2H44.4V44.2H38.8V53.1999H44.4V51.2H40.8V49.5999Z" fill="black"/>
<path d="M46.2 46.2H48.6V53.1999H50.6V46.2H52.9V44.2H46.2V46.2Z" fill="black"/>
<path d="M58.9 44C57.6 44 56.5 44.4 55.6 45.3C54.7 46.2 54.2 47.3 54.2 48.6C54.2 49.9 54.7 51 55.6 51.9C56.5 52.8 57.6 53.3 58.9 53.3C60.2 53.3 61.3 52.9 62.2 51.9C63.1 51 63.6 49.9 63.6 48.6C63.6 47.3 63.1 46.2 62.2 45.3C61.3 44.5 60.2 44 58.9 44ZM60.8 50.6C60.3 51.1 59.7 51.3 58.9 51.3C58.2 51.3 57.5 51.1 57 50.6C56.5 50.1 56.2 49.5 56.2 48.7C56.2 47.9 56.5 47.3 57 46.8C57.5 46.3 58.1 46.1 58.9 46.1C59.6 46.1 60.3 46.3 60.8 46.8C61.3 47.3 61.6 47.9 61.6 48.7C61.6 49.5 61.3 50.1 60.8 50.6Z" fill="black"/>
</svg>
